<?xml version="1.0" standalone="no"?>
<!DOCTYPE svg PUBLIC "-//W3C//DTD SVG 20010904//EN"
 "http://www.w3.org/TR/2001/REC-SVG-20010904/DTD/svg10.dtd">
<svg version="1.0" xmlns="http://www.w3.org/2000/svg"
 width="1080.000000pt" height="1080.000000pt" viewBox="0 0 1080.000000 1080.000000"
 preserveAspectRatio="xMidYMid meet">
<metadata>
Created by potrace 1.14, written by Peter Selinger 2001-2017
</metadata>
<g transform="translate(0.000000,1080.000000) scale(0.100000,-0.100000)"
fill="#000000" stroke="none">
<path d="M6450 10185 c-36 -12 -139 -53 -229 -89 -90 -36 -166 -66 -167 -66
-2 0 18 23 46 52 53 54 68 84 53 99 -11 11 -125 -39 -202 -87 -38 -23 -43 -24
-37 -8 19 46 19 54 -4 54 -20 0 -120 -63 -214 -135 l-34 -26 5 43 c2 24 9 56
15 71 8 20 8 31 0 39 -8 8 -43 -7 -129 -57 -140 -82 -493 -265 -493 -256 0 4
29 39 65 78 60 66 80 103 55 103 -5 0 -42 -19 -82 -42 -48 -29 -119 -88 -210
-177 -76 -74 -138 -132 -138 -129 0 3 13 45 30 94 34 103 35 104 16 104 -17 0
-125 -165 -153 -235 -11 -27 -26 -71 -33 -97 l-12 -46 -67 -17 c-81 -20 -162
-55 -260 -113 -155 -90 -188 -136 -81 -113 83 18 88 13 27 -27 -81 -55 -175
-140 -226 -206 -56 -72 -47 -87 36 -58 63 22 79 20 47 -6 -265 -213 -444 -383
-444 -423 0 -27 12 -24 106 27 46 25 84 42 84 38 0 -4 -14 -30 -32 -58 -107
-173 -164 -268 -190 -316 -17 -30 -37 -67 -46 -81 -8 -15 -12 -34 -9 -43 9
-23 34 -9 117 66 36 32 66 54 68 50 1 -5 -22 -84 -52 -178 -63 -197 -61 -223
10 -153 l43 42 -54 -130 c-30 -72 -56 -141 -57 -154 -3 -21 1 -24 30 -23 17 1
32 1 32 0 0 -1 -13 -42 -30 -90 -37 -110 -87 -286 -98 -347 -10 -54 0 -81 43
-109 28 -18 28 -20 27 -117 0 -108 27 -281 60 -383 57 -175 168 -324 329 -437
l68 -48 1 -66 c1 -157 -44 -566 -86 -784 -78 -409 -164 -783 -233 -1010 -35
-116 -41 -130 -62 -133 -36 -5 -108 -29 -268 -89 -80 -30 -595 -205 -1145
-388 -1196 -398 -1344 -453 -1663 -617 -207 -106 -358 -202 -535 -341 l-88
-69 0 -1284 0 -1284 4746 0 c4515 0 4745 1 4740 18 -2 9 -14 51 -26 92 -107
375 -285 859 -410 1115 -63 130 -157 278 -263 418 -37 48 -97 126 -133 175
-36 48 -89 111 -118 140 -61 64 -441 351 -570 432 -50 31 -148 92 -217 134
-153 95 -299 199 -422 299 -171 140 -302 242 -357 278 -219 144 -353 225 -414
249 l-71 29 -3 198 c-5 322 13 557 74 986 6 44 25 69 40 54 3 -3 -4 -52 -15
-109 -38 -185 -45 -428 -14 -459 15 -15 40 -1 52 29 34 84 63 303 60 450 -1
51 0 94 2 96 2 2 21 6 41 10 37 7 38 6 28 -18 -35 -92 -62 -407 -41 -483 12
-44 38 -67 65 -57 29 11 61 127 71 260 5 69 -5 264 -16 302 -3 9 27 24 91 45
182 61 204 83 342 332 45 83 120 213 166 290 157 261 191 342 243 578 17 77
48 194 69 260 40 127 60 217 60 274 0 22 8 42 23 57 43 43 94 111 115 151 11
22 36 58 56 80 20 21 36 48 36 60 0 12 11 31 24 43 22 18 23 24 14 50 -14 36
3 62 106 170 86 89 81 103 -23 74 -39 -10 -71 -17 -71 -14 0 18 123 219 194
317 40 55 45 75 19 75 -13 0 -10 7 13 33 17 17 65 77 107 133 97 128 157 184
285 268 56 37 102 73 102 80 0 9 -28 17 -88 25 -128 16 -182 35 -222 76 -19
19 -30 35 -24 36 5 0 36 2 68 4 52 4 88 17 75 28 -2 3 -46 26 -98 52 -104 54
-104 57 7 69 68 8 189 41 210 58 6 6 12 16 12 23 0 7 -60 56 -132 109 -73 53
-151 112 -173 130 l-40 35 55 -14 c82 -22 170 -30 170 -16 0 6 -21 22 -47 35
l-48 25 88 -6 c56 -4 87 -2 87 4 0 6 -39 29 -87 52 -124 60 -213 122 -284 199
l-61 67 78 3 c44 2 98 -2 121 -7 109 -28 127 3 26 44 -38 14 -119 53 -180 86
-62 32 -120 59 -128 59 -22 0 -18 13 8 29 41 25 195 156 202 170 12 28 -12 32
-66 10 -74 -29 -222 -79 -234 -79 -5 0 26 21 70 46 158 90 179 121 75 109 -32
-4 -122 -10 -200 -13 l-142 -7 28 20 c85 61 142 130 131 159 -3 8 -36 15 -89
20 -117 9 -408 50 -378 53 118 12 184 32 166 50 -9 9 -176 41 -301 57 -65 9
-120 18 -122 20 -6 6 128 53 172 60 22 4 47 11 55 16 28 18 -1 23 -63 12 -34
-6 -115 -16 -181 -22 -65 -6 -123 -13 -130 -16 -6 -3 0 4 14 15 14 11 28 21
33 21 4 0 7 9 7 20 0 17 -6 19 -52 15 -48 -4 -50 -4 -20 5 40 13 43 40 5 38
-16 0 -117 0 -225 1 -108 1 -209 -1 -224 -5 -17 -4 -25 -3 -21 3 11 18 131 71
206 92 83 23 104 36 77 47 -29 11 -313 -4 -401 -21 -43 -8 -80 -13 -81 -12 -2
2 12 25 31 52 19 27 35 54 35 62 0 19 -45 15 -120 -12z m54 -42 c-54 -72 -67
-82 -118 -99 -60 -19 -96 -40 -96 -55 0 -14 15 -10 145 30 116 36 254 61 340
61 l60 0 -68 -35 c-95 -48 -157 -93 -157 -112 0 -10 6 -13 16 -9 44 17 165 26
309 24 l160 -3 -40 -19 c-63 -31 -115 -65 -115 -76 0 -15 23 -12 73 10 25 11
67 23 94 26 l48 6 -47 -34 c-51 -35 -65 -65 -25 -54 88 25 193 47 215 44 25
-3 22 -5 -23 -26 -27 -13 -74 -33 -102 -43 -52 -20 -71 -35 -59 -46 3 -3 34 4
68 15 84 28 162 37 228 24 30 -6 101 -16 158 -23 106 -13 137 -29 55 -29 -27
0 -66 -5 -88 -11 -22 -6 -60 -14 -85 -18 -43 -7 -44 -8 -20 -18 14 -6 77 -17
140 -23 63 -6 151 -18 195 -26 44 -7 121 -17 172 -20 l92 -7 -19 -27 c-11 -15
-61 -56 -111 -90 -83 -57 -109 -83 -97 -96 3 -2 18 0 34 7 16 6 103 15 194 20
91 5 176 11 190 14 l25 6 -24 -19 c-13 -10 -68 -42 -122 -71 -117 -62 -131
-88 -45 -77 30 3 100 21 155 39 56 18 101 32 101 30 0 -1 -33 -28 -72 -60 -40
-32 -75 -60 -78 -63 -4 -4 -58 -46 -99 -77 -3 -2 0 -8 5 -13 7 -7 26 -5 57 7
52 19 49 20 207 -67 l55 -30 -50 -1 c-71 -1 -158 -22 -163 -38 -4 -11 3 -13
31 -8 35 5 38 3 86 -58 60 -76 148 -145 256 -202 44 -23 76 -43 71 -43 -5 0
-49 9 -98 21 -49 12 -92 19 -95 16 -10 -11 9 -28 65 -57 68 -35 61 -36 -43
-10 -43 11 -80 20 -82 20 -1 0 -3 -9 -3 -19 0 -23 82 -95 233 -207 l108 -79
-28 -12 c-32 -13 -152 -38 -225 -47 -55 -7 -78 -15 -78 -26 0 -18 38 -50 93
-79 l58 -30 -38 -6 c-21 -4 -44 -7 -52 -8 -27 -4 -21 -22 24 -74 33 -37 58
-56 93 -67 46 -15 158 -33 176 -28 25 7 -21 -30 -78 -63 -95 -56 -154 -112
-280 -268 -62 -78 -143 -171 -179 -206 -66 -64 -81 -100 -27 -61 30 22 100 53
100 46 0 -3 -27 -42 -60 -88 -73 -102 -149 -235 -152 -268 -3 -28 14 -31 82
-17 l34 7 -26 -27 c-14 -16 -44 -54 -68 -85 -34 -47 -41 -64 -38 -90 3 -19 -1
-38 -10 -49 -9 -10 -17 -28 -19 -41 -2 -12 -16 -36 -32 -53 -15 -16 -53 -69
-85 -117 -31 -48 -60 -90 -65 -92 -15 -9 20 157 56 267 19 60 55 157 80 216
93 219 86 181 91 521 2 195 0 344 -8 412 l-12 107 41 68 c39 66 67 164 43 149
-7 -4 -12 -13 -12 -19 0 -7 -13 -39 -28 -72 l-29 -60 0 100 c0 81 -4 110 -22
151 l-22 51 20 73 c14 48 17 78 11 84 -6 6 -12 2 -16 -10 -37 -105 -68 -176
-90 -204 l-26 -35 6 33 c13 74 27 214 22 227 -3 8 -1 29 5 47 16 58 -3 85 -78
108 -36 11 -78 20 -94 20 -16 0 -37 9 -48 22 -21 22 -36 56 -28 64 7 7 156 34
188 34 18 0 28 4 24 10 -11 18 -188 3 -235 -20 -8 -4 -32 1 -53 10 l-39 17 51
33 c28 19 51 35 51 37 0 11 -34 -2 -86 -33 -50 -31 -158 -64 -209 -64 -23 0
188 156 265 195 19 10 30 20 23 22 -18 6 -108 -42 -210 -113 -60 -41 -93 -59
-93 -49 0 33 -128 335 -141 335 -12 0 -11 -5 7 -48 30 -70 105 -303 102 -317
-4 -19 -107 129 -129 185 -9 25 -20 71 -24 103 -10 79 -25 82 -25 4 0 -60 -2
-65 -20 -60 -38 10 -44 30 -21 69 23 39 23 48 -1 39 -44 -17 -107 -224 -109
-357 l-1 -63 -15 35 c-42 95 -54 211 -30 280 7 20 34 68 61 109 26 40 45 75
43 77 -5 5 -60 -55 -92 -100 l-20 -27 -32 27 c-18 14 -46 50 -62 78 -28 50
-71 98 -71 80 0 -5 9 -24 21 -43 11 -18 19 -35 17 -37 -2 -2 -35 22 -72 52
-74 58 -99 64 -50 12 22 -24 25 -29 9 -23 -11 5 -36 10 -55 12 -31 4 -43 -1
-87 -41 -28 -25 -58 -61 -67 -81 -9 -19 -19 -35 -22 -35 -3 0 -3 24 1 53 4 37
17 68 45 109 41 61 40 81 -3 47 l-26 -20 -40 25 c-22 14 -67 33 -100 42 -42
12 -58 21 -54 30 9 25 -25 15 -63 -18 -21 -18 -50 -60 -66 -93 -20 -44 -28
-53 -28 -35 0 49 21 98 61 144 24 28 35 46 26 46 -7 0 -22 -10 -33 -21 -17
-19 -26 -21 -88 -15 l-68 6 -36 -37 c-19 -21 -49 -56 -65 -78 l-29 -40 7 65
c4 36 13 77 21 91 17 33 98 106 142 127 34 17 42 32 17 32 -33 0 -93 -41 -141
-95 -27 -31 -61 -63 -75 -71 -15 -7 -53 -37 -84 -66 -46 -41 -56 -48 -50 -29
14 45 75 139 110 169 36 32 45 52 23 52 -16 0 -105 -96 -113 -121 -5 -16 -16
-19 -59 -19 -175 0 -341 -122 -431 -315 -88 -190 -117 -271 -216 -606 -26 -92
-54 -179 -61 -194 -7 -16 -105 -104 -223 -200 -248 -203 -401 -355 -359 -355
4 0 31 21 60 46 l54 46 0 -34 c0 -27 -8 -38 -41 -63 -46 -33 -139 -131 -139
-146 0 -16 14 -10 51 24 20 18 57 50 82 71 l47 38 0 -63 0 -64 -89 -59 c-95
-63 -186 -146 -179 -166 2 -7 38 16 83 55 85 71 173 127 187 119 4 -3 8 -52 8
-109 l0 -104 -91 -88 c-49 -48 -98 -100 -107 -115 l-16 -28 -43 91 c-76 157
-234 291 -345 291 -138 0 -238 -147 -303 -446 -6 -27 -7 -28 -25 -11 -11 10
-22 26 -25 36 -7 22 43 214 97 369 61 176 61 204 -4 169 -17 -9 -20 -9 -16 2
3 8 36 85 72 172 36 87 64 163 60 168 -11 19 -30 8 -75 -43 l-47 -53 48 145
c62 188 66 208 45 216 -10 4 -39 -14 -86 -56 -38 -34 -72 -61 -74 -59 -2 3 41
76 95 164 174 282 185 304 160 320 -5 3 -41 -10 -80 -30 -66 -33 -70 -34 -55
-12 18 28 96 98 260 232 143 117 186 161 178 181 -6 15 -8 15 -100 -16 -29 -9
-53 -14 -53 -10 0 4 37 43 83 86 75 73 155 132 236 176 17 9 31 24 31 33 0 14
-8 15 -57 9 -32 -3 -66 -8 -75 -10 -27 -5 -22 1 30 34 106 68 205 109 340 143
33 8 42 14 38 26 -4 8 -1 34 5 56 12 45 87 204 99 212 5 3 -1 -23 -11 -57 -11
-35 -22 -71 -24 -82 -2 -10 -11 -26 -20 -36 -8 -9 -15 -24 -15 -34 0 -10 66
51 164 151 90 92 185 183 211 202 l48 34 -67 -86 c-58 -75 -79 -117 -60 -117
3 0 34 20 68 45 51 36 242 135 262 135 3 0 78 42 167 93 188 107 177 101 177
89 0 -5 -33 -34 -72 -65 -91 -69 -123 -103 -109 -112 6 -3 42 17 79 46 37 29
73 58 81 63 15 11 13 -7 -5 -71 -5 -19 -2 -23 14 -23 12 0 24 5 27 11 10 14
218 169 223 165 9 -10 -31 -67 -68 -96 -38 -30 -53 -60 -30 -60 6 0 49 31 95
68 47 38 122 88 167 112 81 42 82 42 59 14 -14 -16 -49 -52 -79 -80 -30 -29
-52 -57 -48 -63 8 -12 161 40 323 109 82 36 219 88 232 90 2 0 -9 -17 -25 -37z
m-678 -770 c-54 -79 -88 -139 -100 -180 -13 -41 8 -24 27 21 18 43 76 136 116
186 l21 25 0 -82 c0 -46 4 -83 9 -83 5 0 21 21 37 48 15 26 45 69 67 95 40 48
41 49 86 42 25 -4 47 -8 48 -9 1 -1 -5 -25 -13 -53 -16 -56 -16 -240 1 -236 5
1 15 30 22 65 14 71 62 175 93 203 19 17 23 18 81 1 55 -15 159 -61 159 -70 0
-2 -7 -20 -16 -41 -12 -31 -14 -63 -8 -196 4 -88 10 -162 14 -164 4 -2 10 35
13 82 4 48 14 109 24 137 21 59 99 146 130 146 33 0 151 -48 197 -79 22 -16
53 -42 69 -58 25 -27 26 -32 16 -62 -21 -60 -5 -183 40 -311 23 -63 41 -116
41 -117 0 -2 6 -3 14 -3 10 0 14 31 18 143 5 114 28 278 43 295 9 10 79 -47
95 -77 21 -43 129 -190 152 -209 14 -11 30 -10 92 2 134 28 212 18 237 -32 29
-58 59 -81 118 -88 31 -3 73 -13 95 -22 l39 -15 -6 -121 c-3 -67 -13 -152 -22
-191 -25 -108 -28 -135 -18 -135 5 0 36 34 68 75 57 73 60 74 72 53 21 -39 26
-126 13 -226 -11 -84 -17 -103 -48 -145 -42 -58 -37 -73 7 -21 17 21 32 36 35
33 25 -25 20 -718 -5 -799 -6 -19 -38 -96 -69 -171 -61 -142 -134 -362 -145
-439 -4 -25 -9 -54 -11 -65 -2 -11 -10 -69 -18 -130 -9 -60 -22 -132 -31 -160
-51 -161 -68 -222 -91 -330 -51 -240 -97 -350 -240 -580 -45 -72 -107 -177
-139 -235 -158 -287 -183 -312 -367 -374 -90 -30 -172 -44 -323 -55 -104 -8
-113 -7 -170 16 -99 41 -254 129 -473 269 -298 191 -640 404 -841 525 -95 57
-191 119 -213 138 -51 44 -187 249 -221 334 -15 36 -31 96 -37 133 -6 37 -13
72 -17 77 -3 5 6 21 19 35 43 47 81 102 70 102 -6 0 -28 -22 -49 -50 -21 -27
-40 -49 -43 -50 -8 0 -30 62 -30 82 0 9 3 18 8 20 7 3 61 71 76 96 4 6 3 12
-2 12 -4 0 -27 -23 -50 -51 -27 -33 -43 -46 -46 -38 -20 58 -26 100 -16 112
33 38 89 128 78 125 -7 -2 -31 -30 -53 -62 l-40 -58 -7 29 c-27 105 -34 144
-26 149 5 3 42 44 83 91 89 101 86 80 50 363 -29 227 -45 469 -45 696 l0 162
226 187 c124 104 232 198 239 209 7 12 36 100 64 197 104 361 211 640 282 729
40 50 119 115 175 143 33 17 161 44 169 35 3 -2 -6 -32 -19 -66 -26 -65 -20
-88 11 -50 24 30 150 148 157 148 3 0 -19 -35 -48 -77z m-1809 -1908 c28 -14
85 -59 126 -101 90 -90 125 -157 173 -334 19 -69 52 -183 74 -255 44 -148 81
-307 73 -315 -3 -3 -33 27 -68 65 -78 87 -66 76 -150 139 -80 59 -79 56 -55
213 13 80 13 82 -13 125 -25 43 -77 96 -154 156 -97 76 -146 73 -188 -12 -38
-79 -61 -265 -35 -281 6 -4 23 9 39 27 62 72 82 92 75 78 -4 -8 -14 -23 -22
-32 -8 -10 -11 -18 -6 -18 12 0 46 55 38 62 -6 6 20 29 38 32 27 6 48 18 43
27 -3 4 7 15 24 23 28 15 30 14 60 -14 l31 -30 -33 -16 c-46 -24 -140 -98
-172 -136 -43 -50 -46 -70 -26 -141 20 -72 126 -231 167 -249 17 -8 50 -8 118
0 136 17 201 16 217 -5 8 -9 32 -29 54 -45 36 -26 42 -37 62 -115 13 -47 20
-89 17 -94 -11 -18 -156 -111 -197 -126 -67 -24 -164 -22 -217 4 -191 95 -355
309 -409 533 -47 194 -50 335 -10 499 38 156 84 256 145 312 63 57 103 62 181
24z m533 -177 c0 -40 -6 -49 -85 -132 -46 -48 -87 -97 -90 -107 -11 -32 -22
-21 -35 33 l-13 51 100 99 c55 54 105 98 111 98 7 0 12 -17 12 -42z m25 -214
l7 -61 -83 -86 c-45 -48 -86 -84 -89 -80 -8 9 -40 123 -40 140 0 15 113 151
153 185 l32 27 7 -32 c4 -18 10 -59 13 -93z m-603 77 c60 -38 64 -46 26 -62
-17 -7 -63 -43 -102 -81 -39 -37 -71 -68 -72 -68 0 0 3 30 8 68 11 84 50 172
75 172 11 0 40 -13 65 -29z m187 -175 c8 -10 7 -39 -4 -112 -21 -137 -20 -160
9 -189 13 -13 21 -27 17 -31 -3 -4 -1 -4 5 -1 14 8 54 -20 54 -37 0 -8 12 -21
26 -31 15 -9 23 -12 20 -6 -11 18 10 13 26 -6 34 -40 31 -41 -66 -40 -52 1
-92 -1 -90 -4 2 -4 -13 -9 -34 -13 -35 -6 -40 -3 -85 45 -32 34 -46 57 -42 68
3 8 3 12 -1 8 -10 -9 -34 12 -34 30 0 8 -6 21 -14 29 -8 8 -18 38 -21 68 -6
47 -4 58 16 85 21 29 182 151 199 151 4 0 13 -6 19 -14z m439 -164 c-8 -23
-118 -160 -129 -161 -3 -1 -15 32 -25 72 l-20 72 81 88 80 89 11 -69 c6 -37 7
-78 2 -91z m-328 -217 c11 -13 10 -14 -4 -9 -9 3 -16 10 -16 15 0 13 6 11 20
-6z m277 -430 c-4 -8 -2 -17 3 -20 16 -10 12 -32 -7 -39 -9 -4 -20 -1 -25 6
-5 9 -8 8 -8 -5 0 -15 5 -17 28 -12 25 5 28 3 30 -22 1 -15 7 -43 13 -61 6
-18 8 -40 5 -48 -3 -8 -2 -13 3 -9 5 3 15 -12 21 -32 7 -21 23 -55 37 -76 14
-23 22 -46 18 -57 -3 -10 -1 -21 4 -25 7 -3 8 0 5 9 -11 28 4 17 30 -21 14
-20 22 -41 19 -46 -3 -6 -1 -7 5 -3 6 4 17 -5 26 -22 21 -40 105 -132 121
-132 8 0 17 -5 21 -12 5 -7 3 -8 -6 -3 -9 5 -11 4 -6 -4 4 -6 11 -9 16 -6 11
7 79 -39 97 -64 7 -11 10 -28 7 -38 -4 -12 -3 -14 3 -6 12 17 85 -69 77 -91
-3 -9 -1 -16 6 -16 6 0 8 5 5 10 -3 6 -3 10 2 9 17 -2 113 -120 107 -131 -4
-6 -3 -8 3 -5 5 3 33 -18 62 -47 43 -43 50 -55 38 -64 -8 -7 -16 -10 -19 -7
-2 3 -5 -2 -5 -10 0 -12 6 -10 23 6 20 19 24 20 30 6 6 -17 215 -226 238 -239
9 -5 16 -2 20 8 3 8 2 13 -3 10 -10 -7 -187 182 -184 195 2 5 -2 9 -9 9 -7 0
-23 12 -35 27 -13 14 -50 55 -83 90 -33 35 -58 63 -56 63 3 0 -14 18 -35 40
-22 22 -63 67 -90 100 l-49 60 35 -21 c20 -12 64 -56 98 -98 34 -42 86 -103
116 -136 29 -33 70 -79 90 -102 20 -23 82 -88 138 -145 56 -56 100 -105 97
-110 -3 -5 0 -7 8 -6 7 2 12 -3 10 -10 -1 -8 2 -11 7 -7 6 3 18 -3 28 -14 12
-14 19 -17 24 -9 4 6 -3 20 -17 31 -14 11 -23 22 -20 25 3 2 12 0 19 -6 10 -9
14 -9 14 1 0 7 -11 14 -25 15 -31 3 -44 11 -36 24 5 7 2 8 -6 3 -8 -5 -11 -3
-8 6 3 8 11 13 17 11 7 -1 10 2 6 8 -5 8 -11 7 -21 -1 -12 -10 -20 -7 -42 16
-19 20 -20 23 -4 10 16 -13 26 -15 33 -8 8 8 6 11 -7 10 -11 -1 -18 3 -17 10
2 7 -6 10 -17 8 -10 -2 -25 4 -32 13 -8 10 -9 13 -1 9 19 -12 23 6 6 28 -13
16 -15 17 -10 3 4 -12 1 -18 -9 -18 -9 0 -14 7 -12 17 2 10 -2 18 -9 18 -14 0
-83 70 -83 85 0 5 -5 10 -11 10 -8 0 -7 5 1 16 12 13 19 9 61 -32 27 -26 45
-52 42 -58 -3 -6 -3 -8 1 -4 10 9 254 -241 252 -257 -1 -7 -7 -20 -14 -28 -10
-12 -9 -16 4 -21 10 -4 22 -2 28 4 8 8 6 9 -6 5 -19 -8 -25 9 -8 20 6 4 8 11
5 16 -9 14 11 11 24 -4 6 -8 8 -17 4 -21 -4 -4 1 -4 11 0 13 5 17 4 12 -4 -5
-8 -2 -10 8 -6 18 7 21 20 6 29 -6 4 -7 11 -4 17 5 7 2 8 -5 3 -16 -9 -143
113 -134 128 3 6 1 7 -5 3 -6 -3 -13 -2 -17 4 -3 5 0 10 7 10 10 0 10 2 0 9
-17 10 -17 21 -2 31 9 5 9 9 1 14 -10 6 -15 -6 -12 -26 3 -22 -31 -3 -65 35
-103 113 -149 169 -146 179 1 5 -1 7 -6 4 -5 -3 -22 9 -38 26 l-29 32 45 -27
c31 -18 44 -31 42 -44 -2 -15 -1 -16 7 -3 8 12 13 12 23 2 10 -10 10 -15 -2
-22 -9 -6 -10 -10 -3 -10 6 0 14 4 18 9 11 19 111 -52 170 -122 33 -39 139
-154 235 -256 96 -101 174 -190 174 -197 -1 -8 2 -11 7 -9 4 3 41 -29 81 -72
40 -42 87 -90 105 -107 18 -16 30 -34 26 -39 -3 -6 -1 -7 6 -3 6 4 17 3 24 -2
21 -17 75 -24 97 -12 12 6 24 10 26 7 3 -3 0 -42 -6 -88 -41 -310 -41 -976 0
-1249 24 -164 37 -220 50 -220 5 0 7 15 4 33 -19 141 -24 198 -24 263 l0 75
42 -23 c68 -38 211 -185 252 -259 20 -36 36 -73 36 -82 0 -36 -128 -103 -275
-143 -57 -15 -106 -18 -255 -19 -200 0 -273 6 -450 36 -120 20 -404 86 -430
99 -47 24 -332 562 -458 865 -95 225 -252 685 -328 955 -59 214 -115 403 -120
411 -3 5 -9 9 -13 9 -9 0 6 -80 33 -180 8 -30 31 -116 51 -190 86 -325 236
-768 350 -1035 100 -235 320 -651 416 -787 11 -14 19 -28 19 -31 0 -18 -563
164 -802 259 -187 74 -373 157 -473 212 -175 96 -475 309 -475 337 0 6 11 39
24 71 41 100 193 591 237 760 60 235 136 604 185 894 24 144 54 437 61 597 5
114 9 150 18 143 31 -26 224 5 274 44 8 6 24 11 35 11 12 0 21 7 21 15 0 8 8
14 17 14 10 -1 16 2 15 6 -2 10 34 49 47 49 4 1 6 -6 3 -14z m738 -866 c11 -6
28 -22 39 -36 15 -21 16 -27 5 -35 -11 -7 -9 -8 6 -6 12 2 19 -2 17 -10 -1 -8
1 -11 6 -8 5 3 22 -8 37 -24 23 -24 26 -33 17 -42 -14 -14 -43 -1 -50 23 -3
11 -1 11 7 -1 9 -13 11 -13 11 3 0 12 -8 17 -26 17 -20 0 -25 4 -20 16 3 8 2
13 -3 10 -12 -8 -53 43 -45 56 4 7 10 6 16 -3 8 -12 9 -12 6 0 -2 8 -15 21
-29 29 -22 13 -22 13 -6 -1 10 -8 14 -18 9 -21 -9 -5 -22 8 -67 63 l-20 25 35
-23 c19 -12 44 -27 55 -32z m1520 -744 c10 -119 0 -308 -19 -380 -19 -68 -22
-73 -38 -57 -17 17 -22 166 -9 276 13 115 41 246 52 246 4 0 10 -38 14 -85z
m-158 -87 c-9 -199 -44 -397 -69 -382 -33 20 29 534 64 534 8 0 9 -43 5 -152z
m-2987 -585 c-12 -38 -38 -112 -58 -167 l-35 -98 -19 23 c-11 13 -28 43 -39
67 l-20 43 21 42 c12 23 33 57 47 75 30 40 117 105 121 91 2 -5 -6 -39 -18
-76z"/>
<path d="M6310 9704 c0 -17 92 -144 100 -139 6 4 3 17 -9 33 -10 15 -28 46
-40 70 -12 23 -28 42 -36 42 -8 0 -15 -3 -15 -6z"/>
<path d="M6400 9700 c0 -13 83 -176 104 -206 13 -17 15 -18 21 -2 5 11 -13 50
-50 113 -56 93 -75 117 -75 95z"/>
<path d="M6530 9674 c0 -19 86 -174 98 -174 19 0 15 13 -28 88 -38 65 -70 105
-70 86z"/>
<path d="M7221 9537 c-18 -46 -18 -117 -1 -117 6 0 10 18 10 41 0 22 5 50 11
61 8 14 8 23 0 31 -7 7 -13 2 -20 -16z"/>
<path d="M5250 9483 c0 -8 102 -53 121 -53 16 0 0 19 -29 34 -35 18 -92 30
-92 19z"/>
<path d="M5160 9383 c0 -5 28 -16 63 -25 34 -8 70 -19 80 -23 12 -5 17 -3 17
8 0 9 -14 20 -32 26 -51 16 -128 24 -128 14z"/>
<path d="M7411 9287 c-23 -50 -41 -95 -41 -99 0 -19 28 -5 40 20 26 57 58 162
51 167 -5 2 -27 -37 -50 -88z"/>
<path d="M7476 9238 c-52 -58 -68 -88 -48 -88 5 0 34 34 65 75 32 41 53 75 48
75 -5 0 -34 -28 -65 -62z"/>
<path d="M5046 9269 c-101 -15 -172 -37 -258 -80 -102 -51 -218 -125 -218
-139 0 -15 8 -12 43 14 147 109 379 186 560 186 63 0 86 11 51 24 -21 8 -105
6 -178 -5z"/>
<path d="M5089 9069 c-87 -20 -336 -145 -369 -183 -18 -23 -7 -20 52 15 81 48
194 98 295 131 51 17 90 34 87 39 -6 10 -16 10 -65 -2z"/>
<path d="M5018 8907 c-139 -73 -366 -227 -334 -227 4 0 33 17 64 38 93 63 225
140 296 173 62 29 83 49 52 49 -8 0 -43 -15 -78 -33z"/>
<path d="M4995 8804 c-91 -48 -361 -241 -351 -251 2 -3 24 9 48 26 109 78 273
183 323 208 53 26 69 43 42 43 -6 0 -35 -12 -62 -26z"/>
<path d="M4891 8583 c-108 -62 -331 -246 -316 -262 2 -2 46 32 97 75 104 87
207 157 286 193 28 14 52 28 52 33 0 18 -40 5 -119 -39z"/>
<path d="M4916 8494 c-105 -63 -353 -260 -342 -271 3 -3 29 15 58 39 66 56
322 235 349 243 21 7 26 25 7 25 -7 0 -40 -16 -72 -36z"/>
<path d="M4234 8438 c-49 -54 -84 -99 -84 -110 0 -6 32 22 70 62 39 40 70 75
70 76 0 15 -31 -2 -56 -28z"/>
<path d="M8145 8392 c-41 -8 -34 -19 15 -25 28 -3 65 -13 82 -22 36 -17 49
-12 27 11 -19 19 -97 42 -124 36z"/>
<path d="M8175 8280 c-3 -5 0 -10 7 -10 7 0 25 -7 41 -14 15 -8 27 -11 27 -7
0 22 -64 48 -75 31z"/>
<path d="M4093 8217 c-24 -28 -43 -57 -43 -65 0 -8 21 11 46 42 26 31 51 56
56 56 5 0 6 5 3 10 -10 17 -18 11 -62 -43z"/>
<path d="M4313 8247 c-13 -5 -23 -14 -23 -19 0 -10 39 -1 53 12 15 13 -7 18
-30 7z"/>
<path d="M4192 8144 c-29 -20 -125 -135 -118 -141 4 -4 156 147 156 155 0 7
-18 0 -38 -14z"/>
<path d="M8138 7953 c-40 -10 -14 -23 46 -23 35 0 71 -3 80 -6 9 -3 16 -1 16
5 0 6 -10 13 -22 15 -44 9 -103 13 -120 9z"/>
<path d="M8140 7861 c0 -5 13 -14 30 -21 16 -7 35 -18 41 -26 15 -18 30 -18
23 1 -7 16 -65 55 -83 55 -6 0 -11 -4 -11 -9z"/>
<path d="M4088 7684 c-21 -26 -38 -53 -38 -61 0 -8 18 8 40 36 22 28 45 51 50
51 6 0 10 5 10 10 0 23 -27 7 -62 -36z"/>
<path d="M8160 7708 c0 -21 24 -78 33 -78 8 0 4 19 -14 68 -9 24 -19 29 -19
10z"/>
<path d="M4156 7605 c-65 -80 -58 -101 9 -27 57 63 64 74 47 80 -6 2 -31 -22
-56 -53z"/>
<path d="M6055 8483 c-16 -2 -48 -8 -70 -14 -51 -14 -290 -133 -333 -165 -41
-32 -32 -52 11 -24 60 40 292 149 342 160 58 13 247 17 320 7 123 -17 195 -58
301 -169 114 -119 192 -255 204 -356 10 -75 24 -98 39 -60 24 63 -36 207 -150
358 -122 162 -238 241 -380 260 -71 9 -221 11 -284 3z"/>
<path d="M5865 8060 c-62 -7 -109 -25 -101 -39 3 -4 27 -4 53 0 69 11 221 11
284 -1 30 -6 83 -24 118 -42 83 -40 273 -168 376 -252 49 -40 83 -62 89 -56
12 12 -4 30 -89 100 -105 85 -255 185 -354 235 -117 58 -219 73 -376 55z"/>
<path d="M5785 7964 c-81 -16 -115 -29 -115 -45 0 -13 33 -10 175 16 133 24
199 7 450 -118 184 -91 233 -123 255 -168 11 -21 25 -39 30 -39 40 0 -4 88
-65 130 -69 47 -350 184 -439 214 -89 30 -177 33 -291 10z"/>
<path d="M5650 7791 c0 -31 182 -160 309 -218 204 -93 576 -191 622 -162 7 4
11 10 9 12 -3 2 -59 14 -125 27 -188 36 -310 73 -468 144 l-58 26 20 29 c33
46 37 85 12 110 -12 12 -27 21 -35 21 -20 0 -76 -67 -76 -90 0 -11 -4 -20 -9
-20 -14 0 -124 76 -150 104 -24 25 -51 35 -51 17z"/>
<path d="M7511 7438 c-79 -14 -191 -100 -231 -178 -51 -101 -52 -275 0 -404
39 -98 73 -165 118 -234 l37 -55 -23 -15 c-91 -60 -130 -92 -155 -129 -46 -64
-24 -74 37 -15 28 27 77 66 109 87 76 49 79 67 29 141 -50 74 -105 184 -93
184 6 0 13 -4 16 -10 3 -5 38 -31 78 -56 40 -26 92 -64 116 -85 43 -39 112
-66 132 -53 6 3 -16 20 -48 38 -33 17 -96 58 -140 91 -76 56 -81 62 -80 96 1
49 -26 89 -61 89 -16 0 -33 -5 -40 -12 -6 -6 -14 -9 -17 -7 -7 7 -25 106 -25
136 0 24 2 25 53 18 28 -4 71 -15 95 -25 94 -42 230 -169 295 -279 61 -102 82
-62 23 43 -33 58 -146 178 -211 223 -50 34 -142 63 -200 63 l-54 0 5 33 c15
86 36 138 69 171 65 66 122 97 194 109 141 21 228 -20 292 -138 21 -38 40 -84
44 -104 15 -82 47 -72 34 10 -16 99 -81 196 -165 245 -46 27 -148 37 -233 22z"/>
<path d="M7320 7160 c0 -5 7 -10 16 -10 28 0 162 -58 222 -96 31 -20 87 -66
123 -101 37 -35 70 -60 73 -55 9 15 -135 146 -210 190 -98 58 -224 98 -224 72z"/>
<path d="M4535 6583 c-19 -25 -33 -49 -30 -52 6 -5 84 79 85 92 1 19 -22 3
-55 -40z"/>
<path d="M7050 6574 c-19 -8 -45 -13 -58 -11 -28 5 -37 -7 -16 -24 13 -10 24
-9 64 5 33 12 70 17 107 14 46 -2 58 0 58 12 0 22 -109 25 -155 4z"/>
<path d="M6440 6039 c-30 -5 -70 -11 -87 -14 -21 -4 -33 -12 -33 -22 0 -17 34
-16 215 7 105 14 165 9 272 -24 43 -13 121 -34 173 -46 177 -42 227 -71 291
-170 20 -30 34 -21 25 15 -11 43 -81 110 -146 139 -33 15 -109 38 -169 52 -60
13 -138 34 -173 46 -71 24 -270 34 -368 17z"/>
<path d="M6795 5659 c-10 -15 0 -22 43 -27 64 -8 85 -7 89 4 9 26 -117 48
-132 23z"/>
<path d="M3859 6893 c-13 -16 -12 -17 4 -4 9 7 17 15 17 17 0 8 -8 3 -21 -13z"/>
<path d="M4373 6015 c-10 -11 -9 -13 7 -12 11 1 20 7 20 14 0 17 -12 16 -27
-2z"/>
<path d="M4290 5995 c0 -9 6 -12 15 -9 8 4 15 10 15 15 0 5 -7 9 -15 9 -8 0
-15 -7 -15 -15z"/>
<path d="M4226 5957 c3 -10 9 -15 12 -12 3 3 0 11 -7 18 -10 9 -11 8 -5 -6z"/>
<path d="M4572 5905 c0 -16 2 -22 5 -12 2 9 2 23 0 30 -3 6 -5 -1 -5 -18z"/>
<path d="M4210 5901 c0 -6 4 -13 10 -16 6 -3 7 1 4 9 -7 18 -14 21 -14 7z"/>
<path d="M4295 5801 c-3 -5 -2 -12 3 -15 5 -3 9 1 9 9 0 17 -3 19 -12 6z"/>
<path d="M4686 5737 c3 -10 9 -15 12 -12 3 3 0 11 -7 18 -10 9 -11 8 -5 -6z"/>
<path d="M4701 5694 c0 -11 3 -14 6 -6 3 7 2 16 -1 19 -3 4 -6 -2 -5 -13z"/>
<path d="M4336 5665 c4 -8 11 -15 16 -15 6 0 5 6 -2 15 -7 8 -14 15 -16 15 -2
0 -1 -7 2 -15z"/>
<path d="M4733 5651 c0 -11 5 -18 9 -15 4 3 5 11 1 19 -7 21 -12 19 -10 -4z"/>
<path d="M4726 5608 c3 -5 10 -6 15 -3 13 9 11 12 -6 12 -8 0 -12 -4 -9 -9z"/>
<path d="M4440 5552 c6 -13 14 -21 18 -18 3 4 -2 14 -12 24 -18 16 -18 16 -6
-6z"/>
<path d="M4820 5550 c-12 -8 -13 -11 -2 -22 11 -11 13 -10 10 2 -2 8 3 14 10
13 6 -2 12 2 12 7 0 12 -11 13 -30 0z"/>
<path d="M4420 5524 c0 -8 5 -12 10 -9 6 4 8 11 5 16 -9 14 -15 11 -15 -7z"/>
<path d="M4960 5452 c0 -5 7 -9 15 -9 8 0 12 4 9 9 -3 4 -9 8 -15 8 -5 0 -9
-4 -9 -8z"/>
<path d="M4476 5428 c3 -5 10 -6 15 -3 13 9 11 12 -6 12 -8 0 -12 -4 -9 -9z"/>
<path d="M5002 5401 c-11 -7 -11 -9 1 -14 16 -6 27 0 27 15 0 10 -11 10 -28
-1z"/>
<path d="M4532 5380 c7 -11 16 -20 20 -20 5 0 3 9 -4 20 -7 11 -16 20 -20 20
-5 0 -3 -9 4 -20z"/>
<path d="M4970 5376 c0 -2 7 -7 16 -10 8 -3 12 -2 9 4 -6 10 -25 14 -25 6z"/>
<path d="M5044 5360 c0 -13 4 -16 10 -10 7 7 7 13 0 20 -6 6 -10 3 -10 -10z"/>
<path d="M4526 5343 c8 -18 19 -35 25 -38 17 -11 9 10 -16 40 l-25 30 16 -32z"/>
<path d="M5114 5281 c20 -22 26 -25 26 -13 0 4 -10 13 -22 21 -23 14 -23 14
-4 -8z"/>
<path d="M5190 5286 c0 -2 8 -10 18 -17 15 -13 16 -12 3 4 -13 16 -21 21 -21
13z"/>
<path d="M4600 5248 c-12 -22 -12 -22 6 -6 10 10 15 20 12 24 -4 3 -12 -5 -18
-18z"/>
<path d="M5170 5219 c0 -5 5 -7 10 -4 6 3 10 8 10 11 0 2 -4 4 -10 4 -5 0 -10
-5 -10 -11z"/>
<path d="M5220 5166 c0 -2 8 -10 18 -17 15 -13 16 -12 3 4 -13 16 -21 21 -21
13z"/>
<path d="M4650 5156 c0 -11 49 -96 55 -96 2 0 1 7 -2 17 -5 12 -3 14 7 8 9 -5
11 -4 6 4 -4 6 -12 9 -17 6 -5 -4 -9 0 -9 7 0 15 -39 68 -40 54z"/>
<path d="M5508 5113 c7 -3 16 -2 19 1 4 3 -2 6 -13 5 -11 0 -14 -3 -6 -6z"/>
<path d="M5444 5089 c-4 -7 -3 -9 4 -5 6 3 15 -2 21 -11 6 -10 11 -13 11 -7 0
20 -27 37 -36 23z"/>
<path d="M5593 5071 c20 -15 33 -32 29 -36 -4 -5 -1 -5 6 0 11 5 6 14 -18 36
-17 16 -36 29 -42 29 -6 0 5 -13 25 -29z"/>
<path d="M4724 5031 c20 -22 26 -25 26 -13 0 4 -10 13 -22 21 -23 14 -23 14
-4 -8z"/>
<path d="M5630 5015 c-11 -13 -10 -14 4 -9 9 3 16 10 16 15 0 13 -6 11 -20 -6z"/>
<path d="M5657 5015 c-4 -11 -10 -27 -13 -35 -3 -8 1 -5 11 8 9 12 15 28 13
34 -3 7 -7 4 -11 -7z"/>
<path d="M4797 4939 c4 -13 8 -18 11 -10 2 7 -1 18 -6 23 -8 8 -9 4 -5 -13z"/>
<path d="M5446 4927 c3 -10 9 -15 12 -12 3 3 0 11 -7 18 -10 9 -11 8 -5 -6z"/>
<path d="M4835 4880 c10 -11 20 -20 23 -20 3 0 -3 9 -13 20 -10 11 -20 20 -23
20 -3 0 3 -9 13 -20z"/>
<path d="M5485 4890 c3 -5 8 -10 11 -10 2 0 4 5 4 10 0 6 -5 10 -11 10 -5 0
-7 -4 -4 -10z"/>
<path d="M5760 4880 c-9 -6 -10 -10 -3 -10 6 0 15 5 18 10 8 12 4 12 -15 0z"/>
<path d="M5805 4850 c3 -5 11 -10 16 -10 6 0 7 5 4 10 -3 6 -11 10 -16 10 -6
0 -7 -4 -4 -10z"/>
<path d="M5704 4828 c2 -7 8 -24 14 -38 l11 -25 -2 28 c-1 16 -7 33 -13 38 -9
7 -12 6 -10 -3z"/>
<path d="M5846 4812 c-3 -5 1 -9 9 -9 8 0 12 4 9 9 -3 4 -7 8 -9 8 -2 0 -6 -4
-9 -8z"/>
<path d="M4906 4788 c3 -5 10 -5 16 -2 7 5 9 1 5 -9 -9 -23 0 -22 12 1 8 15 6
18 -14 18 -13 0 -21 -4 -19 -8z"/>
<path d="M5850 4780 c0 -5 6 -15 14 -22 11 -11 11 -15 -3 -26 -14 -11 -13 -12
6 -2 22 10 22 12 7 35 -17 27 -24 31 -24 15z"/>
<path d="M4997 4705 c3 -8 9 -12 14 -9 12 7 11 11 -5 17 -10 4 -13 1 -9 -8z"/>
<path d="M5980 4665 c19 -19 36 -35 39 -35 3 0 -10 16 -29 35 -19 19 -36 35
-39 35 -3 0 10 -16 29 -35z"/>
<path d="M4990 4670 c0 -5 6 -13 13 -17 6 -4 25 -25 41 -46 15 -21 30 -36 33
-33 3 3 -8 21 -26 41 -17 20 -31 40 -31 44 0 5 -7 11 -15 15 -8 3 -15 1 -15
-4z"/>
<path d="M5060 4625 c7 -9 15 -13 17 -11 7 7 -7 26 -19 26 -6 0 -6 -6 2 -15z"/>
<path d="M6016 4615 c-11 -8 -15 -15 -9 -15 6 0 16 7 23 15 16 19 11 19 -14 0z"/>
<path d="M6021 4586 c-9 -11 -8 -15 4 -20 10 -4 14 -2 9 5 -4 6 0 15 7 20 8 5
9 9 3 9 -6 0 -17 -6 -23 -14z"/>
<path d="M6086 4528 c3 -5 10 -6 15 -3 13 9 11 12 -6 12 -8 0 -12 -4 -9 -9z"/>
<path d="M6165 4459 c-4 -6 -5 -12 -2 -15 2 -3 7 2 10 11 7 17 1 20 -8 4z"/>
<path d="M5306 4312 c-3 -5 1 -9 9 -9 8 0 12 4 9 9 -3 4 -7 8 -9 8 -2 0 -6 -4
-9 -8z"/>
<path d="M6405 4290 l-30 -8 33 -1 c17 0 32 4 32 9 0 6 -1 9 -2 9 -2 -1 -16
-5 -33 -9z"/>
<path d="M6422 4215 c0 -16 2 -22 5 -12 2 9 2 23 0 30 -3 6 -5 -1 -5 -18z"/>
<path d="M5415 4190 c3 -5 8 -10 11 -10 2 0 4 5 4 10 0 6 -5 10 -11 10 -5 0
-7 -4 -4 -10z"/>
<path d="M6417 4113 c-3 -15 -2 -36 2 -47 5 -13 8 -5 8 27 1 53 -2 60 -10 20z"/>
<path d="M5710 3940 c0 -5 5 -10 11 -10 5 0 7 5 4 10 -3 6 -8 10 -11 10 -2 0
-4 -4 -4 -10z"/>
<path d="M5756 3899 c2 -4 12 -5 21 -2 10 4 14 2 9 -5 -9 -15 14 -26 27 -13 9
9 8 11 -6 5 -12 -4 -17 -2 -15 7 2 8 -6 14 -19 15 -12 1 -20 -2 -17 -7z"/>
<path d="M5890 3816 c0 -2 7 -7 16 -10 8 -3 12 -2 9 4 -6 10 -25 14 -25 6z"/>
<path d="M5940 3796 c0 -2 7 -7 16 -10 8 -3 12 -2 9 4 -6 10 -25 14 -25 6z"/>
<path d="M6076 3751 c-4 -5 3 -7 14 -4 23 6 26 13 6 13 -8 0 -17 -4 -20 -9z"/>
<path d="M6258 3753 c12 -2 32 -2 45 0 12 2 2 4 -23 4 -25 0 -35 -2 -22 -4z"/>
<path d="M6150 3739 c-20 -6 -17 -7 18 -8 23 -1 42 1 42 3 0 9 -37 12 -60 5z"/>
<path d="M6258 3723 c12 -2 30 -2 40 0 9 3 -1 5 -23 4 -22 0 -30 -2 -17 -4z"/>
</g>
</svg>
